<?xml version="1.0" encoding="UTF-8"?> <svg xmlns="http://www.w3.org/2000/svg" width="1663" height="1212" viewBox="0 0 1663 1212" fill="none"><g clip-path="url(#clip0_1128_3734)"><path opacity="0.7" d="M1126.72 226.421C1126.72 226.421 943.755 130.489 736.672 199.067C529.589 267.646 400.041 451.362 290.523 597.532C181.006 743.703 201.024 914.582 333.573 1013.36C466.122 1112.13 583.213 1019.3 787.763 1048.35C992.313 1077.41 1042.44 1113.36 1229.2 1036.28C1415.96 959.205 1488.6 714.857 1386.52 507.852C1284.44 300.847 1126.72 226.421 1126.72 226.421Z" fill="#DEF2FF"></path><path d="M1067.12 163.91H498.217V919.535H1067.12V163.91Z" fill="#0A71B3"></path><g opacity="0.1"><path d="M1067.12 163.91H498.217V919.535H1067.12V163.91Z" fill="#020100"></path></g><path d="M1051.64 163.91H482.743V919.535H1051.64V163.91Z" fill="#0A71B3"></path><path d="M1019.29 194.072L517.117 200.47L525.791 881.205L1027.96 874.806L1019.29 194.072Z" fill="#EBEBEB"></path><path d="M521.193 191.953L506.461 872.583L1008.56 883.451L1023.29 202.821L521.193 191.953Z" fill="#DBDBDB"></path><path d="M1015.93 197.265H513.717V878.055H1015.93V197.265Z" fill="white"></path><path d="M625.22 403.529C611.816 403.865 585.81 404.383 572.406 404.538C572.121 389.012 572.199 367.301 572.069 351.672V350.378H573.363C589.07 350.533 610.729 350.378 626.229 350.688C626.048 364.118 625.582 390.124 625.22 403.529V403.529ZM625.22 403.529C624.884 390.59 624.418 364.714 624.237 351.775L625.22 352.759C610.237 352.94 588.579 352.991 573.467 353.069L574.761 351.775C574.761 367.068 574.631 388.546 574.45 403.529L573.467 402.545C586.405 402.701 612.411 403.218 625.22 403.529Z" fill="#C7C7C7"></path><path d="M652.779 360.547C690.792 358.788 729.115 358.788 767.128 360.547C729.089 362.333 690.792 362.307 652.779 360.547Z" fill="#C7C7C7"></path><path d="M652.779 373.046C750.282 371.312 858.68 371.364 956.261 373.046C858.654 374.702 750.308 374.753 652.779 373.046V373.046Z" fill="#C7C7C7"></path><path d="M577.193 374.909C579.108 376.513 580.919 378.169 582.731 379.851C584.542 381.533 586.276 383.267 587.906 385.027C591.399 388.468 594.763 392.013 598.075 395.61L592.15 395.998C596.855 386.142 602.251 376.63 608.297 367.534C611.298 363.014 614.49 358.598 617.871 354.285C621.283 349.928 624.983 345.804 628.946 341.942C627.363 347.241 625.426 352.428 623.15 357.468C620.95 362.462 618.518 367.353 615.904 372.114C610.69 381.664 604.828 390.845 598.36 399.595L595.1 403.942L592.512 399.983C589.769 395.921 587.078 391.832 584.49 387.666C583.248 385.544 581.902 383.474 580.712 381.326C579.522 379.178 578.254 377.134 577.193 374.909Z" fill="#263238"></path><path d="M625.22 500.773C611.816 501.109 585.81 501.627 572.406 501.782C572.121 486.256 572.199 464.571 572.069 448.916V447.622H573.363C589.07 447.777 610.729 447.622 626.229 447.958C626.048 461.388 625.582 487.369 625.22 500.773V500.773ZM625.22 500.773C624.884 487.834 624.418 461.958 624.237 449.019L625.22 450.029C610.237 450.21 588.579 450.236 573.467 450.313L574.761 449.019C574.761 464.313 574.631 485.816 574.45 500.773L573.467 499.789C586.405 499.945 612.411 500.462 625.22 500.773Z" fill="#C7C7C7"></path><path d="M652.779 457.714C690.792 455.955 729.115 455.929 767.128 457.714C729.089 459.474 690.792 459.474 652.779 457.714Z" fill="#C7C7C7"></path><path d="M652.779 470.187C750.282 468.479 858.68 468.505 956.261 470.187C858.654 471.869 750.308 471.92 652.779 470.187V470.187Z" fill="#C7C7C7"></path><path d="M577.193 472.05C579.108 473.654 580.919 475.31 582.731 476.992C584.542 478.674 586.276 480.408 587.906 482.168C591.399 485.635 594.763 489.18 598.075 492.777L592.15 493.139C596.866 483.338 602.261 473.879 608.297 464.83C611.298 460.311 614.49 455.894 617.871 451.581C621.276 447.219 624.977 443.095 628.946 439.238C627.364 444.538 625.427 449.725 623.15 454.764C620.95 459.784 618.518 464.649 615.904 469.436C610.689 478.978 604.828 488.151 598.36 496.892L595.1 501.265L592.512 497.28C589.769 493.243 587.078 489.154 584.49 484.962C583.248 482.84 581.902 480.77 580.712 478.623C579.522 476.475 578.254 474.275 577.193 472.05Z" fill="#263238"></path><path d="M625.22 597.836C611.816 598.173 585.81 598.69 572.406 598.845C572.121 583.319 572.199 561.609 572.069 545.979V544.763H573.363C589.07 544.918 610.729 544.763 626.229 545.074C626.048 558.504 625.582 584.484 625.22 597.914V597.836ZM625.22 597.836C624.884 584.898 624.418 559.021 624.237 546.083L625.22 547.066C610.237 547.247 588.579 547.299 573.467 547.377L574.761 546.083C574.761 561.376 574.631 582.854 574.45 597.836L573.467 596.853C586.405 597.008 612.411 597.526 625.22 597.836Z" fill="#C7C7C7"></path><path d="M652.779 554.855C690.792 553.096 729.115 553.096 767.128 554.855C729.089 556.615 690.792 556.615 652.779 554.855Z" fill="#C7C7C7"></path><path d="M652.779 567.354C750.282 565.62 858.68 565.672 956.261 567.354C858.654 569.01 750.308 569.062 652.779 567.354V567.354Z" fill="#C7C7C7"></path><path d="M625.22 694.977C611.816 695.314 585.81 695.831 572.406 695.987C572.121 680.461 572.199 658.776 572.069 643.12V641.827H573.363C589.07 641.982 610.729 641.827 626.229 642.163C626.048 655.567 625.582 681.573 625.22 694.977ZM625.22 694.977C624.884 682.039 624.418 656.162 624.237 643.224L625.22 644.233C610.237 644.414 588.579 644.44 573.467 644.518L574.761 643.224C574.761 658.517 574.631 680.021 574.45 694.977L573.467 693.994C586.405 694.149 612.411 694.667 625.22 694.977Z" fill="#C7C7C7"></path><path d="M652.779 652.022C690.792 650.237 729.115 650.237 767.128 652.022C729.089 653.782 690.792 653.782 652.779 652.022Z" fill="#C7C7C7"></path><path d="M652.779 664.495C750.282 662.787 858.68 662.813 956.261 664.495C858.654 666.177 750.308 666.229 652.779 664.495V664.495Z" fill="#C7C7C7"></path><path d="M625.22 792.144C611.816 792.481 585.81 792.972 572.406 793.154C572.121 777.628 572.199 755.917 572.069 740.287V738.994H573.363C589.07 739.149 610.729 738.994 626.229 739.304C626.048 752.734 625.582 778.714 625.22 792.144ZM625.22 792.144C624.884 779.206 624.418 753.2 624.237 740.391L625.22 741.374C610.237 741.555 588.579 741.607 573.467 741.685L574.761 740.391C574.761 755.684 574.631 777.162 574.45 792.144L573.467 791.161C586.405 791.316 612.411 791.834 625.22 792.144Z" fill="#C7C7C7"></path><path d="M652.779 749.189C690.792 747.43 729.115 747.43 767.128 749.189C729.089 750.949 690.792 750.949 652.779 749.189Z" fill="#C7C7C7"></path><path d="M652.779 761.662C750.282 759.928 858.68 759.98 956.261 761.662C858.654 763.318 750.308 763.37 652.779 761.662V761.662Z" fill="#C7C7C7"></path><path d="M885.074 150.118H638.392V225.316H885.074V150.118Z" fill="#C7C7C7"></path><path d="M837.15 109H684.064L677.284 150.118H846.207L837.15 109ZM761.72 138.499C759.934 138.499 758.188 137.97 756.702 136.977C755.217 135.985 754.06 134.575 753.376 132.924C752.693 131.274 752.514 129.458 752.862 127.707C753.211 125.955 754.071 124.346 755.334 123.083C756.597 121.82 758.206 120.959 759.958 120.611C761.71 120.263 763.526 120.441 765.176 121.125C766.826 121.808 768.236 122.966 769.229 124.451C770.221 125.936 770.751 127.682 770.751 129.468C770.754 130.655 770.523 131.831 770.07 132.928C769.618 134.026 768.953 135.023 768.113 135.862C767.274 136.701 766.277 137.366 765.18 137.819C764.083 138.272 762.907 138.503 761.72 138.499Z" fill="#C7C7C7"></path><path d="M846.207 150.118H677.284L678.811 140.932H844.163L846.207 150.118Z" fill="#A6A6A6"></path><path d="M801.988 1142.33C1206.25 1142.33 1533.98 1095.62 1533.98 1038.01C1533.98 980.399 1206.25 933.695 801.988 933.695C397.722 933.695 70 980.399 70 1038.01C70 1095.62 397.722 1142.33 801.988 1142.33Z" fill="#0A71B3"></path><path opacity="0.5" d="M801.988 1142.33C1206.25 1142.33 1533.98 1095.62 1533.98 1038.01C1533.98 980.399 1206.25 933.695 801.988 933.695C397.722 933.695 70 980.399 70 1038.01C70 1095.62 397.722 1142.33 801.988 1142.33Z" fill="white"></path><path d="M1556.04 642.954C1543.77 646.204 1532.72 652.968 1524.25 662.414C1516.84 670.331 1510.39 679.097 1505.04 688.53C1501.42 694.498 1498.42 700.683 1495.53 706.941C1493.65 711.028 1492.2 716.128 1490.43 720.794C1487.86 724.954 1485.29 729.222 1483.19 733.201C1490.86 705.53 1515.75 654.601 1516.07 640.133C1516.58 624.363 1501.6 647.801 1493.07 679.921C1488.3 698.086 1484.67 716.533 1482.22 735.154C1481.35 736.818 1480.59 738.373 1479.9 739.856C1478.35 743.075 1475.71 748.537 1472.2 755.699C1479.9 732.188 1482.69 704.3 1478.06 700.828C1471.33 695.836 1468.91 708.062 1468.94 730.705C1468.28 746.874 1465.62 762.899 1461.02 778.414C1456.79 786.77 1452.05 795.993 1446.99 805.723C1452.3 788.795 1455.38 764.416 1458.27 746.15C1462.5 719.564 1460.69 711.281 1452.09 724.049C1443.48 736.818 1444.85 755.337 1447.02 777.98C1447.75 792.453 1445.13 806.9 1439.35 820.191C1432.88 832.489 1426.01 845.222 1419.06 857.737C1424.95 844.91 1428.68 831.197 1430.09 817.153C1433.1 786.444 1429.15 758.231 1422.03 766.224C1414.9 774.218 1419.13 795.595 1418.19 821.602C1417.68 837.393 1415.9 853.117 1412.88 868.624L1410.71 872.458C1413.57 859.252 1414.32 845.678 1412.95 832.236C1414.36 827.1 1413.85 823.808 1412.15 822.253C1411.9 816.466 1412.37 807.785 1409.91 803.336C1403.69 792.231 1396.89 807.17 1396.82 813.066C1396.82 817.579 1397.14 822.087 1397.76 826.557C1395.33 828.809 1393.24 831.39 1391.54 834.226C1390.6 835.817 1389.62 837.553 1388.57 839.47C1388.57 837.626 1388.79 835.636 1388.86 833.864C1389.19 828.854 1388.13 823.851 1385.82 819.396C1389.56 811.939 1392.25 804.003 1393.81 795.812C1394.54 793.102 1394.35 790.228 1393.27 787.638C1392.91 786.838 1392.4 786.118 1391.76 785.518C1391.12 784.918 1390.37 784.45 1389.55 784.14C1388.73 783.831 1387.86 783.687 1386.98 783.716C1386.11 783.745 1385.24 783.947 1384.45 784.31C1384.06 784.493 1383.69 784.698 1383.33 784.925C1371.53 791.182 1368.39 806.229 1367.01 818.311C1365.72 828.731 1363.61 839.034 1360.72 849.128C1358.3 858.207 1356.16 866.418 1354.79 872.133C1353.85 866.037 1352.57 859.999 1350.95 854.047C1349.61 849.092 1348.35 844.317 1347.12 839.579C1345.99 822.821 1349.27 806.06 1356.63 790.965C1370.59 762.246 1380.68 748.718 1371.1 748.248C1361.51 747.777 1347.37 762.716 1345.38 786.372C1343.89 800.706 1343.58 815.139 1344.48 829.523C1341.4 818.672 1338.37 808.146 1335.22 797.585C1332.79 785.921 1333.38 773.829 1336.95 762.463C1343.54 742.967 1363.21 708.207 1352.87 711.064C1342.52 713.922 1330.08 733.888 1328.67 755.156C1328.3 766.268 1329.51 777.377 1332.29 788.144C1330.05 780.765 1327.63 773.097 1325.05 765.139C1323.97 761.522 1322.81 757.905 1321.69 754.288C1321.73 753.636 1321.63 752.982 1321.4 752.371C1319.96 741.382 1321.94 730.216 1327.08 720.396C1336.99 702.6 1355.4 687.3 1344.55 683.213C1333.7 679.125 1317.31 708.062 1316.34 722.53C1316.12 728.036 1316.56 733.549 1317.64 738.952L1316.3 735.588C1313.95 727.269 1311.67 719.058 1309.68 711.787C1309.25 701.052 1311.41 690.371 1315.98 680.644C1325.67 658.436 1337.97 633.08 1325.42 639.518C1315.29 644.763 1304.36 674.676 1306.5 699.96C1305.67 696.632 1304.87 693.811 1304.26 691.496C1302.63 677.027 1299.52 642.955 1304.26 622.771C1307.37 609.243 1312.47 596.403 1314.02 582.477C1314.34 580.933 1314.22 579.332 1313.7 577.847C1310.3 569.455 1299.23 585.805 1297.56 588.481C1290.81 599.249 1287.35 611.761 1287.62 624.471C1287.63 635.303 1288.91 646.097 1291.45 656.627C1292.99 663.355 1294.86 670.01 1297.06 676.593C1298.43 680.825 1300.89 685.564 1302.77 690.157C1303.71 694.968 1304.76 699.851 1305.88 704.228C1292.61 678.547 1275.79 624.326 1266.39 613.294C1256 601.467 1261.03 628.993 1276.59 658.11C1285.53 674.743 1295.51 690.798 1306.46 706.181C1306.97 707.99 1307.48 709.798 1307.98 711.209C1309.03 714.609 1310.84 720.432 1313.15 728.064C1302.59 705.747 1285.74 683.321 1279.99 683.936C1271.7 684.876 1278.29 695.474 1293.73 712.005C1304.22 724.265 1313.14 737.775 1320.32 752.226C1322.92 761.269 1325.78 771.18 1328.71 781.742C1321 765.754 1306.61 745.824 1296.15 730.524C1281.11 708.207 1274.13 703.36 1276.55 718.551C1278.97 733.743 1292.68 746.294 1309.72 761.45C1320.07 771.587 1327.97 783.96 1332.79 797.621C1336.41 811.004 1340.03 825.002 1343.65 838.928C1339.2 825.516 1332.58 812.928 1324.04 801.672C1305.23 777.112 1283.1 759.207 1283.35 769.878C1283.6 780.548 1301.25 793.353 1318.4 812.885C1328.8 824.746 1338.2 837.449 1346.5 850.864C1346.87 852.239 1347.19 853.649 1347.52 855.024C1339.85 840.953 1327.59 829.487 1315.69 818.853C1311.49 815.019 1305.16 806.953 1299.77 805.217C1287.69 801.382 1292.9 816.936 1296.88 821.276C1309.79 835.383 1327.98 844.1 1339.92 858.966C1344.42 864.553 1348.45 870.506 1351.97 876.763C1352.8 881.646 1353.41 886.203 1353.92 890.471C1349.34 886.131 1344.51 882.031 1339.45 878.173C1324.98 868.371 1316.41 854.879 1305.16 842.002C1301.8 838.168 1296.08 833.394 1290.69 833.14C1283.02 832.815 1280.75 840.845 1283.02 847.175C1291.89 873.254 1325.24 874.411 1344.8 887.975C1348.37 890.261 1351.67 892.943 1354.64 895.969C1355.47 904.019 1355.69 912.121 1355.29 920.204H1310.44V938.904H1323.75L1334.6 1005.46H1424.27L1435.12 938.904H1448.43V920.204H1381.19C1384.27 916.369 1387.56 912.535 1390.89 908.159L1405.06 908.593C1405.06 908.593 1454.36 910.727 1472.45 900.888C1490.54 891.05 1474.4 881.718 1457.08 886.746C1439.75 891.773 1405.75 907.001 1398.23 907.001L1391.86 906.82C1395.48 902.227 1399.1 897.488 1402.28 892.641C1415.85 889.23 1429.2 884.978 1442.25 879.909C1456.39 874.303 1472.96 869.781 1485 860.269C1487.34 858.727 1489.12 856.468 1490.07 853.83C1490.62 852.151 1490.48 850.323 1489.69 848.744C1488.89 847.165 1487.51 845.964 1485.83 845.402C1485.44 845.272 1485.05 845.176 1484.64 845.113C1471.73 841.496 1459.14 850.466 1450.1 858.351C1442.14 865.091 1433.67 871.209 1424.78 876.654C1416.78 881.573 1409.62 886.203 1404.77 889.35C1408.39 884.033 1411.65 878.716 1414.43 873.543C1416.86 868.986 1419.21 864.645 1421.41 860.413C1432.06 847.453 1445.9 837.481 1461.56 831.477C1491.37 819.974 1507.9 817.008 1501.35 810.1C1494.8 803.191 1474.08 804.457 1456.5 820.408C1445.6 829.86 1435.51 840.204 1426.33 851.334C1431.58 841.207 1436.5 831.513 1441.38 821.674C1447.59 811.477 1456.31 803.035 1466.7 797.151C1484.78 787.457 1522.84 775.448 1513.4 770.493C1503.95 765.537 1481.17 771.578 1465.69 786.191C1457.81 794.066 1451.11 803.032 1445.79 812.812C1449.19 805.832 1452.66 798.634 1456.32 791.11C1457.87 787.782 1459.57 784.382 1461.31 780.838C1461.67 780.295 1462.07 779.789 1462.39 779.21C1468.85 770.196 1477.93 763.399 1488.4 759.75C1507.61 753.492 1531.81 754.867 1526.53 744.377C1521.24 733.888 1489.56 743.943 1478.96 753.89C1475.06 757.796 1471.62 762.127 1468.69 766.803C1469.16 765.718 1469.63 764.561 1470.06 763.403C1473.9 755.735 1477.73 748.067 1481.57 741.701C1488.54 733.533 1497.41 727.189 1507.39 723.217C1529.64 713.632 1555.97 703.468 1542.37 699.598C1531.52 696.487 1502.94 710.883 1487.32 730.849L1491.44 723.181C1500.12 711.426 1521.1 684.406 1538.46 672.795C1549.96 665.091 1562.44 659.087 1573.01 649.972C1574.16 649.103 1575.11 647.976 1575.75 646.68C1578.58 637.854 1559.44 642.34 1556.04 642.954ZM1355.37 875.641C1358.26 871.228 1363.36 863.09 1369 852.637C1370.74 857.401 1372.72 862.073 1374.93 866.635C1369.73 877.486 1364.95 886.673 1362.2 889.061L1357.43 893.256C1357.1 887.541 1356.27 881.682 1355.44 875.786L1355.37 875.641ZM1387.92 906.712C1384.42 911.364 1380.65 915.809 1376.63 920.023H1359.27C1359.02 912.789 1358.51 904.144 1357.68 894.703L1368.35 885.299C1368.35 885.299 1373.02 881.465 1379.2 875.279C1382.24 881.242 1384.59 887.527 1386.22 894.016C1387.37 898.251 1387.99 902.613 1388.06 907.001L1387.92 906.712ZM1402.39 869.781C1401.88 876.952 1400.76 884.066 1399.06 891.05C1396.35 895.21 1393.67 898.971 1391.14 902.552C1390.92 896.114 1389.19 884.467 1389 883.671C1387.81 878.459 1387.16 873.138 1387.05 867.792C1392.16 862.537 1396.99 857.02 1401.52 851.262C1402.55 857.427 1402.9 863.685 1402.57 869.926L1402.39 869.781Z" fill="#263238"></path><path d="M861.769 973.617C861.769 973.617 853.341 1002.55 856.163 1020.24C856.163 1020.24 859.527 1049.68 863.397 1065.38C867.267 1081.08 871.21 1091.97 849.109 1098.19C827.009 1104.41 772.717 1091.21 759.985 1095.66C747.252 1100.11 674.766 1090.16 663.951 1085.38C653.136 1080.61 651.436 1047.51 674.802 1036.01C698.169 1024.51 861.769 973.617 861.769 973.617Z" fill="white"></path><path d="M858.55 1034.24C858.55 1034.24 864.844 1069.61 864.663 1076.05C853.927 1072.99 842.866 1071.22 831.711 1070.77C816.809 1070.77 772.138 1071.35 754.414 1068.67C736.69 1066 702.618 1053.52 686.847 1053.45C676.842 1053.44 666.855 1054.33 657.006 1056.09C657.006 1056.09 655.161 1043.46 680.047 1036.88C704.932 1030.3 795.613 1011.23 795.613 1011.23C795.613 1011.23 815.868 1033.01 858.55 1034.24Z" fill="#0A71B3"></path><path d="M542.634 1017.38C542.634 1017.38 526.755 1007.33 511.817 1013.48C496.878 1019.63 443.671 1019.77 443.671 1019.77C443.671 1019.77 401.568 1014.49 383.627 1023.39C365.687 1032.29 363.697 1045.71 365.108 1056.16C366.519 1066.61 392.996 1094.5 427.756 1095.95C462.516 1097.39 465.373 1089.58 493.948 1088.06C493.948 1088.06 532.289 1085.64 543.358 1080.83C554.426 1076.02 568.894 1072.04 568.46 1051.35C568.026 1030.66 542.634 1017.38 542.634 1017.38Z" fill="white"></path><path d="M542.634 1017.38C542.634 1017.38 526.538 1008.27 498.108 1016.8C469.678 1025.34 419.581 1012.72 397.879 1020.24C376.176 1027.76 373.174 1041.94 375.959 1047.41C378.744 1052.87 397.228 1074.97 417.773 1078.48C438.318 1081.98 484.652 1079.85 505.885 1083.72C505.885 1083.72 549.76 1086.25 563.758 1064.33C577.756 1042.41 542.634 1017.38 542.634 1017.38Z" fill="#0A71B3"></path><path d="M1139.52 1001.54L1166.29 951.661L1093.3 876.354L1027.43 884.203L990.139 941.027L999.435 973.617L1139.52 1001.54Z" fill="#263238"></path><path d="M1194.76 987.904C1194.76 987.904 1192.73 1081.19 1132.25 1091.28C1071.78 1101.37 855.945 996.368 855.945 996.368C855.945 996.368 775.574 1038.11 715.096 1043.39C654.619 1048.67 566.796 1059.92 557.826 1069.98C548.855 1080.03 515.289 1037.86 534.64 1012.54C534.64 1012.54 600.146 1008.38 641.453 987.796C682.76 967.215 817.822 889.086 845.022 884.311C872.222 879.537 1029.49 954.085 1029.49 954.085L1076.88 964.176L1194.76 987.904Z" fill="#263238"></path><path d="M1015.82 921.278L1027.43 884.203C1027.43 884.203 911.215 755.037 861.769 756.773C812.324 758.509 803.607 802.24 800.279 836.349C796.951 870.458 800.279 921.133 800.279 921.133L913.928 935.348L999.616 973.617L1016 921.278" fill="#263238"></path><path d="M889.729 899.611C889.729 901.637 885.751 840.725 868.28 813.489" stroke="white" stroke-width="1.06897" stroke-linecap="round" stroke-linejoin="round"></path><path d="M849.724 812.476C850.96 824.505 850.887 836.633 849.507 848.647" stroke="white" stroke-width="1.06897" stroke-linecap="round" stroke-linejoin="round"></path><path d="M858.043 1033.01C858.043 1033.01 866.616 1077.83 864.265 1087.27C861.262 1099.24 829.939 1099.49 821.041 1099.89C801.364 1100.72 781.723 1098.77 762.046 1099.09C747.071 1099.35 732.133 1100.94 717.122 1100.72C702.089 1101.04 687.178 1097.96 673.5 1091.71C661.998 1085.96 654.474 1077.79 655.921 1064.41C657.838 1046.75 663.734 1042.31 688.113 1039.52C712.492 1036.74 798.542 1011.02 798.542 1011.02C798.542 1011.02 811.889 1034.46 858.043 1033.01Z" stroke="#263238" stroke-width="1.06897" stroke-linecap="round" stroke-linejoin="round"></path><path d="M858.044 1033.01C854.687 1016.3 854.687 999.083 858.044 982.37C863.759 956.616 819.45 979.042 819.45 979.042L795.613 1004.76L798.543 1010.98" stroke="#263238" stroke-width="1.06897" stroke-linecap="round" stroke-linejoin="round"></path><path d="M861.769 1091.9C861.872 1089.33 861.081 1086.81 859.53 1084.76C857.98 1082.72 855.767 1081.28 853.269 1080.68C846.831 1078.98 839.018 1080.14 832.471 1080.32C821.15 1080.68 809.828 1081.15 798.507 1081.26C760.383 1081.59 723.38 1069.51 685.292 1068.06C678.601 1067.81 666.628 1066.03 660.696 1070.19C651.147 1076.88 668.762 1090.01 675.381 1092.69C691.606 1098.53 708.786 1101.25 726.02 1100.72C748.374 1099.67 783.387 1099.82 798.543 1100C813.698 1100.18 842.129 1105.97 861.769 1091.9Z" fill="#263238"></path><path d="M863.18 1075.91C853.147 1072.07 842.448 1070.27 831.711 1070.63C792.14 1070.45 748.518 1072.8 710.756 1058.76C694.045 1052.54 666.736 1049.21 656.789 1058.76" stroke="#263238" stroke-width="1.06897" stroke-linecap="round" stroke-linejoin="round"></path><path d="M564.373 1062.09C564.373 1062.09 562.962 1078.3 535.798 1082.13C508.634 1085.96 453.799 1092.98 435.677 1095.48C417.556 1097.97 365.578 1078.3 365.108 1052.79C364.638 1027.29 387.028 1019.66 400.881 1019.19C414.734 1018.72 480.457 1021.58 498.108 1016.8C515.759 1012.03 525.779 1010.11 536.268 1016.33" stroke="#263238" stroke-width="1.06897" stroke-linecap="round" stroke-linejoin="round"></path><path d="M392.308 1020.24C392.308 1020.24 376.863 1032.07 375.417 1043.97C373.97 1055.87 404.968 1079.24 432.639 1081.62C460.309 1084.01 495.757 1079.13 511.636 1085.24" stroke="#263238" stroke-width="1.06897" stroke-linecap="round" stroke-linejoin="round"></path><path d="M1190.45 637.626C1190.45 637.626 1169.33 653.288 1159.13 646.561C1148.93 639.833 1126.58 614.369 1126.58 614.369L1094.31 631.948L1060.46 740.641L1037.81 836.711L1001.64 854.398V869.771C1001.64 869.771 1022.91 891.799 1045.05 898.345C1067.18 904.892 1091.34 911.258 1109.58 906.99C1127.81 902.722 1162.75 781.984 1162.75 781.984L1250.64 653.542L1190.45 637.626Z" fill="#263238"></path><path d="M903.872 890.243L1060.49 850.456L903.872 777.897L754.414 816.021L903.872 890.243Z" fill="white" stroke="#263238" stroke-width="1.06897" stroke-linecap="round" stroke-linejoin="round"></path><path d="M903.872 890.243L868.859 729.5L722.584 673.688L752.642 817.069L903.872 890.243Z" fill="white"></path><path d="M1060.49 848.611V857.4L902.932 899.612L751.051 823.508L750.219 814.755L902.932 888.616L1060.49 848.611Z" fill="#263238"></path><path d="M1136.52 625.799C1118.6 647.373 1104.47 671.835 1094.75 698.14C1080.71 738.615 1054.34 824.268 1056.62 857.292L1000.81 813.887C1006.3 786.225 1008.33 757.988 1006.85 729.826C1003.78 688.591 1000.66 622.905 1036.73 617.516C1074.42 609.449 1124.69 597.151 1124.69 597.151L1136.52 625.799Z" fill="#0A71B3"></path><path d="M1230.89 609.667C1230.89 609.667 1287.5 639.978 1294.52 652.203C1301.53 664.429 1305.62 660.812 1302.98 680.127C1300.34 699.442 1286.31 762.416 1282.91 783.684C1279.51 804.953 1267.97 896.79 1267.97 896.79C1257.57 901.306 1246.82 904.936 1235.81 907.642L1309.78 1004.33C1309.78 1004.33 1281.89 1064.91 1228.61 1066.79C1175.33 1068.67 1150.63 1016.84 1127.59 980.345C1104.55 943.848 1089.1 894.511 1089.1 894.511L1077.93 892.45L1082.09 840.002L1089.1 841.087C1089.1 841.087 1090.59 767.95 1121.66 712.826C1152.73 657.701 1230.89 609.667 1230.89 609.667Z" fill="#0A71B3"></path><path opacity="0.2" d="M1110.84 606.375C1110.84 606.375 1086.21 618.962 1083.68 634.805C1081.14 650.648 1089.25 670.289 1077.42 678.029C1065.59 685.77 1051.7 687.398 1044.87 708.015C1038.03 728.632 1040.09 823.979 1044.87 840.328C1049.64 856.677 1056.44 840.328 1056.44 840.328L1064.29 798.659L1080.42 739.013L1096.37 694.234L1110.84 663.199L1128.2 627.86L1110.84 606.375Z" fill="black"></path><path d="M1078.9 880.332C1078.9 880.332 1055.86 883.371 1048.16 880.043C1040.45 876.715 1033.69 875.051 1028.26 859.86C1022.84 844.668 1012.71 840.002 1001.82 839.278C990.935 838.555 966.303 833.744 962.035 821.88L972.705 821.121C969.035 820.082 965.647 818.227 962.794 815.695H967.279C967.279 815.695 988.693 804.446 999.616 801.733C1010.54 799.02 1022.22 796.199 1032.53 805.097C1042.84 813.995 1048.37 833.166 1052.57 838.157C1056.77 843.149 1067.87 849.334 1082.45 849.298L1078.9 880.332Z" fill="white"></path><path d="M1077.42 880.441C1077.42 880.441 1046.17 885.903 1035.75 873.641C1025.33 861.379 1028.95 844.017 1005.8 840.002C982.652 835.987 963.047 830.959 961.962 821.917C961.962 821.917 1009.56 817.395 1019.84 825.534" stroke="#263238" stroke-width="1.06897" stroke-linecap="round" stroke-linejoin="round"></path><path d="M971.041 820.831C967.766 820.119 964.802 818.383 962.577 815.876L983.954 811.789C991.442 810.342 998.929 807.846 1006.67 808.172C1013.64 808.984 1020 812.505 1024.39 817.974" stroke="#263238" stroke-width="1.06897" stroke-linecap="round" stroke-linejoin="round"></path><path d="M968.437 813.597L993.214 804.157C1004.61 799.816 1018.03 795.62 1028.41 802.023C1032.59 804.935 1036.08 808.725 1038.64 813.127C1041.63 817.764 1044.3 822.598 1046.64 827.595C1048.17 831.425 1050.14 835.065 1052.5 838.447C1059.26 846.983 1069.72 849.117 1080.6 849.587" stroke="#263238" stroke-width="1.06897" stroke-linecap="round" stroke-linejoin="round"></path><path d="M1235.09 609.666C1235.09 609.666 1203.66 621.964 1190.6 637.626C1190.6 637.626 1159.09 659.04 1146 635.492C1132.91 611.945 1131.53 564.525 1131.53 564.525L1119.34 537.433L1124.04 464.766L1158.12 413.585L1190.45 389.82L1225.57 457.604L1266.38 485.384L1261.71 561.342L1235.09 609.666Z" fill="white"></path><path d="M1169.18 419.336C1169.18 419.336 1167.67 477.643 1215.12 499.129C1215.12 499.129 1228.94 569.915 1183.18 584.89C1183.18 584.89 1175.44 617.986 1208.32 623.267C1250.75 602.469 1243.26 580.224 1243.26 580.224L1257.91 517.54L1262.58 475.401L1208.32 432.828L1169.18 419.336Z" fill="#0A71B3"></path><path opacity="0.5" d="M1169.18 419.336C1169.18 419.336 1167.67 477.643 1215.12 499.129C1215.12 499.129 1228.94 569.915 1183.18 584.89C1183.18 584.89 1175.44 617.986 1208.32 623.267C1250.75 602.469 1243.26 580.224 1243.26 580.224L1257.91 517.54L1262.58 475.401L1208.32 432.828L1169.18 419.336Z" fill="white"></path><path d="M1132.18 450.045C1132.18 450.045 1130.16 456.628 1132.18 476.305C1134.21 495.982 1129.36 521.12 1135.8 538.772C1142.24 556.423 1153.16 583.334 1183.15 584.745C1206.15 584.745 1230.17 552.191 1233.13 530.814C1233.13 530.814 1260.88 517.793 1257.59 499.346C1254.29 480.899 1236.5 485.854 1231.83 499.346" stroke="#263238" stroke-width="1.06897" stroke-linecap="round" stroke-linejoin="round"></path><path d="M1157.14 486.649C1159.45 497.508 1159.09 508.767 1156.09 519.456C1155.07 521.808 1154.88 524.434 1155.55 526.907C1156.06 527.938 1156.82 528.824 1157.76 529.487C1158.7 530.15 1159.8 530.569 1160.94 530.705C1163.22 530.946 1165.53 530.749 1167.74 530.127" stroke="#263238" stroke-width="1.06897" stroke-linecap="round" stroke-linejoin="round"></path><path d="M1169.18 542.75C1169.18 542.75 1182.13 546.765 1190.24 537.433" stroke="#263238" stroke-width="1.06897" stroke-linecap="round" stroke-linejoin="round"></path><path d="M1230.89 609.666C1222.86 589.266 1237.84 528.101 1237.84 528.101" stroke="#263238" stroke-width="1.06897" stroke-linecap="round" stroke-linejoin="round"></path><path d="M1180.83 476.449C1180.83 476.449 1199.53 460.173 1208.29 484.262" stroke="#263238" stroke-width="1.06897" stroke-linecap="round" stroke-linejoin="round"></path><path d="M1153.78 475.4C1152.38 472.348 1150.13 469.762 1147.3 467.949C1145.87 467.082 1144.21 466.661 1142.53 466.738C1140.86 466.815 1139.25 467.388 1137.9 468.383" stroke="#263238" stroke-width="1.06897" stroke-linecap="round" stroke-linejoin="round"></path><path d="M1186.47 506.001C1184.76 506.001 1183.36 502.859 1183.36 498.984C1183.36 495.108 1184.76 491.967 1186.47 491.967C1188.19 491.967 1189.58 495.108 1189.58 498.984C1189.58 502.859 1188.19 506.001 1186.47 506.001Z" fill="#263238"></path><path d="M1147.55 495.873C1147.55 499.743 1148.93 502.89 1150.67 502.89C1152.4 502.89 1153.78 499.743 1153.78 495.873C1153.78 492.003 1152.4 488.856 1150.67 488.856C1148.93 488.856 1147.55 492.003 1147.55 495.873Z" fill="#263238"></path><path d="M1165.24 580.079C1165.24 580.079 1171.68 592.955 1161.41 621.132" stroke="#263238" stroke-width="1.06897" stroke-linecap="round" stroke-linejoin="round"></path><path d="M1237.84 488.856C1237.84 488.856 1167.95 462.958 1169.11 419.191C1169.11 419.191 1157.47 447.44 1131.21 462.017C1131.21 462.017 1138.73 422.012 1147.48 404.614C1156.24 387.216 1208.47 373.543 1228.47 377.775C1248.47 382.007 1287.03 390.037 1295.02 454.494C1303.02 518.95 1295.02 567.419 1313.83 593.281C1332.64 619.143 1329.82 663.85 1302.51 669.963C1299.76 661.435 1295.05 653.668 1288.77 647.284C1278.89 637.88 1229.92 610.607 1229.92 610.607C1229.92 610.607 1227.78 561.632 1237.76 528.101C1237.76 528.101 1258.67 521.663 1257.55 499.345C1255.52 481.983 1237.84 488.856 1237.84 488.856Z" fill="#263238"></path><path d="M1149.87 401.25C1139.66 411.72 1130.97 423.566 1124.04 436.445C1108.89 462.958 1092.14 492.871 1084.55 522.459C1081.59 534.175 1081.01 546.362 1082.83 558.305C1084.65 570.249 1088.84 581.71 1095.14 592.015C1097.16 594.961 1098.93 598.071 1100.42 601.311C1101.88 605.332 1102.81 609.528 1103.17 613.79C1104.44 623.448 1105.92 633.467 1111.2 641.678C1116.48 649.889 1126.68 655.712 1136.05 652.891C1145.18 649.195 1152.55 642.14 1156.63 633.178C1163.87 613.464 1168.43 600.913 1165.24 580.151C1165.24 580.151 1132.15 550.998 1132.4 517.467C1132.65 483.937 1126.68 460.824 1140.28 444.185C1153.88 427.547 1149.87 401.25 1149.87 401.25Z" fill="#263238"></path><path d="M1229.99 610.607C1229.99 610.607 1275.85 634.552 1294.52 652.203C1313.18 669.855 1296.29 710.655 1288.55 752.035C1280.81 793.414 1274.8 832.84 1267.97 896.718C1200.91 927.897 1137.75 902.578 1077.93 892.305L1082.09 840.002C1090.8 840.472 1136.34 853.928 1176.13 842.172C1196.67 836.059 1213.42 844.957 1227.56 861.053" stroke="#263238" stroke-width="1.06897" stroke-linecap="round" stroke-linejoin="round"></path><path d="M1238.38 847.164C1217.94 837.108 1199.46 832.695 1180.51 841.087" stroke="#263238" stroke-width="1.06897" stroke-linecap="round" stroke-linejoin="round"></path><path d="M1184.45 839.532C1196.28 807.593 1199.17 770.59 1204.67 735.396" stroke="#263238" stroke-width="1.06897" stroke-linecap="round" stroke-linejoin="round"></path><path d="M1267.97 680.127C1242.78 694.745 1223.19 717.353 1212.3 744.366" stroke="#263238" stroke-width="1.06897" stroke-linecap="round" stroke-linejoin="round"></path><path d="M1222.36 703.964L1213.13 721.688" stroke="#263238" stroke-width="1.06897" stroke-linecap="round" stroke-linejoin="round"></path><path d="M1230.89 609.667C1230.89 609.667 1139.78 662.042 1112.94 730.766C1086.1 799.491 1089.75 840.255 1089.75 840.255" stroke="#263238" stroke-width="1.06897" stroke-linecap="round" stroke-linejoin="round"></path><path d="M1230.89 609.667C1240.62 630.573 1231.58 654.989 1217.65 671.627C1203.19 688.989 1179.49 698.393 1157.54 701.83C1155.15 702.191 1152.29 702.77 1151.5 705.049C1151.11 706.224 1151.11 707.491 1151.5 708.666C1154.79 719.517 1164.92 728.126 1164.7 739.411C1164.31 744.05 1162.99 748.564 1160.83 752.686C1148.53 780.158 1134.68 806.908 1119.34 832.804" stroke="#263238" stroke-width="1.06897" stroke-linecap="round" stroke-linejoin="round"></path><path opacity="0.5" d="M1225.57 402.842C1229.72 426.588 1238.31 449.34 1250.89 469.902" stroke="white" stroke-width="1.06897" stroke-linecap="round" stroke-linejoin="round"></path><path opacity="0.5" d="M1266.38 413.584C1279.47 444.149 1273.25 479.054 1274.62 512.295C1275.92 542.24 1283.59 571.563 1297.12 598.309" stroke="white" stroke-width="1.06897" stroke-linecap="round" stroke-linejoin="round"></path><path d="M1089.1 894.475C1089.1 894.475 1135.18 1019.16 1179.53 1051.09C1223.88 1083.03 1273.1 1065.92 1309.74 1004.33L1235.81 907.822" stroke="#263238" stroke-width="1.06897" stroke-linecap="round" stroke-linejoin="round"></path><path d="M1222.54 911.584C1215.45 939.234 1199.09 963.619 1176.2 980.67" stroke="#263238" stroke-width="1.06897" stroke-linecap="round" stroke-linejoin="round"></path><path d="M1231.47 910.607C1234.82 930.881 1233.8 951.637 1228.47 971.483" stroke="#263238" stroke-width="1.06897" stroke-linecap="round" stroke-linejoin="round"></path><path d="M1153.78 599.068C1153.78 599.068 1111.75 643.92 1086.14 721.687C1060.53 799.455 1056.62 842.172 1056.62 842.172" stroke="#263238" stroke-width="1.06897" stroke-linecap="round" stroke-linejoin="round"></path><path d="M1186.47 640.773C1186.47 640.773 1159.27 658.859 1145.85 635.492C1132.43 612.126 1142.24 604.205 1142.24 604.205" stroke="#263238" stroke-width="1.06897" stroke-linecap="round" stroke-linejoin="round"></path><path d="M1148.28 595.741C1139.78 594.366 1131.24 597.332 1123.28 600.587C1113.71 604.128 1104.77 609.184 1096.81 615.562C1088.79 622.017 1083.53 631.274 1082.09 641.461C1080.96 652.637 1085.7 665.008 1079.88 674.665C1073.37 685.517 1057.2 686.493 1049.57 696.549C1046.26 701.696 1044.29 707.591 1043.85 713.694C1038.98 749.23 1038.82 785.254 1043.38 820.831" stroke="#263238" stroke-width="1.06897" stroke-linecap="round" stroke-linejoin="round"></path><path d="M1050.04 663.488C1040.45 671.876 1032.44 681.908 1026.38 693.112C1020.32 704.442 1018.73 717.634 1021.93 730.079C1023.31 734.564 1025.55 738.796 1026.64 743.317C1027.67 747.662 1028.28 752.095 1028.48 756.556L1032.1 803.578" stroke="#263238" stroke-width="1.06897" stroke-linecap="round" stroke-linejoin="round"></path><path d="M1136.52 591.653C1118.76 596.97 1101.26 603.807 1083.17 607.677C1065.09 611.547 1047.98 612.524 1030.76 619.288C1028.21 620.204 1025.79 621.419 1023.52 622.905C1008.73 633.25 1008.84 654.084 1007.18 669.927C1002.11 718.215 1015.39 754.313 1001.82 800.937" stroke="#263238" stroke-width="1.06897" stroke-linecap="round" stroke-linejoin="round"></path><path d="M1093.3 906.773C1093.3 906.773 1047.98 911.584 1006.24 873.786" stroke="#263238" stroke-width="1.06897" stroke-linecap="round" stroke-linejoin="round"></path><path opacity="0.5" d="M1122.96 647.574C1131.28 635.42 1136.96 620.699 1134.79 606.158C1133.38 596.717 1128.78 588.073 1124.66 579.536C1118.91 568.485 1114.69 556.707 1112.11 544.523C1109.56 532.272 1110.62 519.547 1115.15 507.882C1119.01 499.769 1123.94 492.204 1129.79 485.384" stroke="white" stroke-width="1.06897" stroke-linecap="round" stroke-linejoin="round"></path><path d="M903.872 890.243L722.584 673.688L752.642 817.069L903.872 890.243Z" fill="#263238"></path><path opacity="0.8" d="M903.872 890.243L722.584 673.688L752.642 817.069L903.872 890.243Z" fill="white"></path><path d="M785.159 775.799C787.655 785.565 794.925 792.112 801.4 790.448C807.875 788.784 811.021 779.597 808.634 769.758C806.247 759.92 798.832 753.445 792.393 755.109C785.955 756.773 782.627 766.033 785.159 775.799Z" fill="#263238"></path><path d="M903.872 890.243L868.859 729.5L722.584 673.688L752.642 817.069L903.872 890.243Z" stroke="#263238" stroke-width="1.06897" stroke-linecap="round" stroke-linejoin="round"></path><path d="M909.804 886.771L875.514 727.077L727.358 671.374L721.896 672.748L868.858 729.5L903.872 890.243L909.804 886.771Z" fill="#263238"></path><path opacity="0.2" d="M1230.89 609.667C1230.89 609.667 1243.77 645.15 1217.65 671.627C1191.54 698.104 1151.5 705.085 1151.5 705.085V708.702C1151.5 708.702 1168.86 732.249 1163.98 744.366C1159.09 756.484 1114.24 845.319 1114.24 845.319L1088.92 841.087C1088.44 799.644 1097.97 758.696 1116.7 721.724C1148.28 661.68 1230.89 609.667 1230.89 609.667Z" fill="black"></path><path opacity="0.2" d="M1243.15 917.371C1243.15 917.371 1241.35 943.631 1231.36 958.967C1231.36 958.967 1230.2 939.652 1228.61 922.616C1228.61 922.616 1213.82 960.45 1184.63 973.798C1184.63 973.798 1201.85 939.652 1207.42 922.616C1207.42 922.616 1148.86 933.033 1092.29 903.337V895.09C1092.29 895.09 1179.53 920.663 1235.81 907.822L1243.15 917.371Z" fill="black"></path><path opacity="0.2" d="M1204.05 740.641L1167.88 832.804L1124.19 847.272L1172.22 845.427C1172.22 845.427 1194.54 842.208 1222.5 857.291C1222.5 857.291 1221.23 849.153 1209.66 842.281C1209.66 842.281 1213.82 838.229 1231.36 843.908C1222.98 835.614 1213.18 828.889 1202.43 824.051L1204.05 740.641Z" fill="black"></path><path opacity="0.2" d="M1043.2 668.914C1051.92 659.51 1022.4 684.323 1018.35 696.476C1014.3 708.63 1014.08 721.796 1014.16 734.564C1014.23 747.332 1014.52 760.426 1011.26 772.833C1009.09 781.116 1004.39 792.691 1001.82 800.865C1001.82 800.865 1025.59 797.574 1031.95 803.325L1026.64 743.209C1026.64 743.209 1007.21 707.979 1043.2 668.914Z" fill="black"></path><path d="M961.962 821.881L900.219 790.955L886.8 793.957" stroke="#263238" stroke-width="1.06897" stroke-linecap="round" stroke-linejoin="round"></path><path d="M905.355 876.354L1014.55 847.562L983.195 835.372" stroke="#263238" stroke-width="1.06897" stroke-linecap="round" stroke-linejoin="round"></path><path d="M888.282 802.529L990.139 853.602" stroke="#263238" stroke-width="1.06897" stroke-linecap="round" stroke-linejoin="round"></path><path d="M889.838 821.88L965.688 859.932" stroke="#263238" stroke-width="1.06897" stroke-linecap="round" stroke-linejoin="round"></path><path d="M893.13 840.942L943.624 866.262" stroke="#263238" stroke-width="1.06897" stroke-linecap="round" stroke-linejoin="round"></path><path d="M998.206 838.627L899.857 864.128" stroke="#263238" stroke-width="1.06897" stroke-linecap="round" stroke-linejoin="round"></path><path d="M970.282 830.562L895.119 850.094" stroke="#263238" stroke-width="1.06897" stroke-linecap="round" stroke-linejoin="round"></path><path d="M955.054 818.444L893.129 834.504" stroke="#263238" stroke-width="1.06897" stroke-linecap="round" stroke-linejoin="round"></path><path d="M936.208 809.003L889.838 821.048" stroke="#263238" stroke-width="1.06897" stroke-linecap="round" stroke-linejoin="round"></path><path d="M916.894 800.069L886.799 807.846" stroke="#263238" stroke-width="1.06897" stroke-linecap="round" stroke-linejoin="round"></path><path d="M803.245 905.833C783.279 912.778 767.074 920.301 767.074 920.301" stroke="white" stroke-width="1.06897" stroke-linecap="round" stroke-linejoin="round"></path><path d="M1056.62 951.046C1056.62 951.046 883.291 892.269 850.448 894.439C842.417 895.103 834.463 896.496 826.683 898.599" stroke="white" stroke-width="1.06897" stroke-linecap="round" stroke-linejoin="round"></path><path d="M1027.43 941.425C1020.2 933.395 1015.68 929.235 1011.73 922.761" stroke="white" stroke-width="1.06897" stroke-linecap="round" stroke-linejoin="round"></path><path d="M556.672 310C556.233 310 555.874 309.86 555.594 309.581C555.315 309.301 555.175 308.942 555.175 308.503V269.573C555.175 269.134 555.315 268.775 555.594 268.495C555.874 268.216 556.233 268.076 556.672 268.076H571.705C575.698 268.076 579.032 268.715 581.707 269.992C584.382 271.23 586.419 273.067 587.816 275.502C589.253 277.898 590.012 280.873 590.092 284.426C590.132 286.183 590.152 287.72 590.152 289.038C590.152 290.356 590.132 291.873 590.092 293.59C589.972 297.303 589.234 300.377 587.876 302.813C586.518 305.249 584.522 307.065 581.887 308.263C579.252 309.421 575.958 310 572.005 310H556.672ZM564.698 302.274H571.705C573.702 302.274 575.339 301.975 576.616 301.376C577.894 300.777 578.832 299.838 579.431 298.561C580.07 297.243 580.409 295.546 580.449 293.47C580.489 292.312 580.509 291.274 580.509 290.356C580.549 289.437 580.549 288.519 580.509 287.601C580.509 286.682 580.489 285.664 580.449 284.546C580.37 281.551 579.591 279.355 578.114 277.958C576.676 276.521 574.44 275.802 571.406 275.802H564.698V302.274ZM598.416 310C598.017 310 597.677 309.86 597.398 309.581C597.118 309.301 596.979 308.942 596.979 308.503V280.354C596.979 279.914 597.118 279.555 597.398 279.276C597.677 278.996 598.017 278.856 598.416 278.856H604.405C604.844 278.856 605.204 278.996 605.483 279.276C605.763 279.555 605.902 279.914 605.902 280.354V308.503C605.902 308.942 605.763 309.301 605.483 309.581C605.204 309.86 604.844 310 604.405 310H598.416ZM598.236 274.065C597.837 274.065 597.498 273.925 597.218 273.646C596.939 273.366 596.799 273.007 596.799 272.568V267.776C596.799 267.337 596.939 266.978 597.218 266.698C597.498 266.379 597.837 266.219 598.236 266.219H604.525C604.964 266.219 605.323 266.379 605.603 266.698C605.922 266.978 606.082 267.337 606.082 267.776V272.568C606.082 273.007 605.922 273.366 605.603 273.646C605.323 273.925 604.964 274.065 604.525 274.065H598.236ZM627.542 310.599C622.951 310.599 619.297 309.321 616.582 306.766C613.907 304.21 612.49 300.497 612.33 295.626C612.33 295.307 612.33 294.887 612.33 294.368C612.33 293.809 612.33 293.37 612.33 293.051C612.49 289.976 613.188 287.341 614.426 285.145C615.664 282.909 617.401 281.212 619.637 280.054C621.873 278.856 624.488 278.257 627.483 278.257C630.837 278.257 633.631 278.956 635.867 280.354C638.143 281.711 639.84 283.588 640.958 285.983C642.116 288.339 642.695 291.054 642.695 294.129V295.506C642.695 295.906 642.535 296.245 642.216 296.524C641.936 296.804 641.597 296.944 641.198 296.944H621.613C621.613 296.984 621.613 297.063 621.613 297.183C621.613 297.263 621.613 297.343 621.613 297.423C621.653 298.7 621.893 299.878 622.332 300.956C622.811 301.994 623.47 302.833 624.308 303.472C625.187 304.111 626.225 304.43 627.423 304.43C628.421 304.43 629.239 304.29 629.878 304.011C630.517 303.731 631.036 303.392 631.435 302.993C631.875 302.593 632.194 302.254 632.394 301.975C632.753 301.575 633.033 301.336 633.232 301.256C633.472 301.136 633.831 301.076 634.31 301.076H640.539C640.938 301.076 641.258 301.196 641.497 301.435C641.777 301.635 641.896 301.935 641.857 302.334C641.817 302.973 641.477 303.771 640.838 304.73C640.239 305.648 639.341 306.566 638.143 307.485C636.945 308.363 635.448 309.102 633.651 309.701C631.895 310.299 629.858 310.599 627.542 310.599ZM621.613 291.493H633.352V291.374C633.352 289.936 633.112 288.699 632.633 287.66C632.194 286.582 631.535 285.744 630.657 285.145C629.778 284.546 628.72 284.247 627.483 284.247C626.245 284.247 625.187 284.546 624.308 285.145C623.43 285.744 622.751 286.582 622.272 287.66C621.833 288.699 621.613 289.936 621.613 291.374V291.493ZM650.119 310C649.72 310 649.381 309.86 649.101 309.581C648.822 309.301 648.682 308.942 648.682 308.503V280.354C648.682 279.914 648.822 279.555 649.101 279.276C649.381 278.996 649.72 278.856 650.119 278.856H655.989C656.428 278.856 656.787 278.996 657.067 279.276C657.346 279.555 657.486 279.914 657.486 280.354V282.689C658.524 281.412 659.862 280.354 661.499 279.515C663.136 278.677 665.132 278.257 667.488 278.257C669.844 278.257 671.9 278.796 673.657 279.875C675.453 280.913 676.851 282.45 677.849 284.486C678.887 286.483 679.406 288.918 679.406 291.793V308.503C679.406 308.942 679.247 309.301 678.927 309.581C678.648 309.86 678.308 310 677.909 310H671.56C671.121 310 670.762 309.86 670.482 309.581C670.203 309.301 670.063 308.942 670.063 308.503V292.152C670.063 290.036 669.544 288.399 668.506 287.241C667.508 286.043 666.03 285.444 664.074 285.444C662.197 285.444 660.7 286.043 659.582 287.241C658.464 288.399 657.905 290.036 657.905 292.152V308.503C657.905 308.942 657.765 309.301 657.486 309.581C657.206 309.86 656.867 310 656.468 310H650.119ZM698.86 310.599C696.384 310.599 694.248 310.319 692.451 309.76C690.695 309.162 689.257 308.443 688.139 307.604C687.061 306.766 686.243 305.927 685.684 305.089C685.165 304.21 684.885 303.472 684.845 302.873C684.805 302.434 684.945 302.074 685.264 301.795C685.584 301.515 685.903 301.376 686.223 301.376H692.032C692.152 301.376 692.272 301.396 692.392 301.435C692.511 301.475 692.631 301.575 692.751 301.735C693.27 302.094 693.809 302.514 694.368 302.993C694.927 303.432 695.566 303.811 696.284 304.131C697.043 304.45 697.981 304.61 699.099 304.61C700.417 304.61 701.535 304.35 702.453 303.831C703.372 303.272 703.831 302.494 703.831 301.495C703.831 300.777 703.611 300.178 703.172 299.699C702.773 299.22 701.994 298.78 700.836 298.381C699.678 297.982 697.961 297.543 695.686 297.063C693.529 296.584 691.693 295.945 690.176 295.147C688.658 294.348 687.52 293.35 686.762 292.152C686.003 290.915 685.624 289.437 685.624 287.72C685.624 286.163 686.103 284.666 687.061 283.228C688.059 281.791 689.517 280.613 691.433 279.695C693.35 278.737 695.745 278.257 698.62 278.257C700.816 278.257 702.733 278.537 704.37 279.096C706.047 279.615 707.444 280.294 708.562 281.132C709.68 281.931 710.519 282.769 711.078 283.648C711.677 284.486 711.996 285.225 712.036 285.864C712.076 286.263 711.956 286.602 711.677 286.882C711.397 287.161 711.078 287.301 710.718 287.301H705.388C705.188 287.301 705.009 287.281 704.849 287.241C704.689 287.161 704.55 287.062 704.43 286.942C703.951 286.622 703.451 286.263 702.932 285.864C702.453 285.424 701.874 285.045 701.196 284.726C700.517 284.406 699.638 284.247 698.56 284.247C697.243 284.247 696.225 284.546 695.506 285.145C694.827 285.704 694.488 286.423 694.488 287.301C694.488 287.86 694.667 288.379 695.027 288.858C695.386 289.337 696.125 289.777 697.243 290.176C698.361 290.575 700.058 290.994 702.334 291.434C705.049 291.913 707.205 292.631 708.802 293.59C710.399 294.548 711.537 295.666 712.216 296.944C712.934 298.181 713.294 299.519 713.294 300.956C713.294 302.833 712.735 304.51 711.617 305.987C710.499 307.425 708.862 308.563 706.706 309.401C704.589 310.2 701.974 310.599 698.86 310.599ZM733.899 310C731.423 310 729.307 309.601 727.55 308.802C725.793 307.964 724.456 306.686 723.537 304.969C722.659 303.252 722.22 301.096 722.22 298.501V285.924H717.548C717.109 285.924 716.75 285.784 716.47 285.504C716.191 285.225 716.051 284.865 716.051 284.426V280.354C716.051 279.914 716.191 279.555 716.47 279.276C716.75 278.996 717.109 278.856 717.548 278.856H722.22V268.974C722.22 268.535 722.36 268.176 722.639 267.896C722.959 267.617 723.318 267.477 723.717 267.477H729.587C730.026 267.477 730.385 267.617 730.665 267.896C730.944 268.176 731.084 268.535 731.084 268.974V278.856H738.57C738.97 278.856 739.309 278.996 739.588 279.276C739.868 279.555 740.008 279.914 740.008 280.354V284.426C740.008 284.865 739.868 285.225 739.588 285.504C739.309 285.784 738.97 285.924 738.57 285.924H731.084V297.782C731.084 299.299 731.343 300.497 731.862 301.376C732.421 302.214 733.38 302.633 734.737 302.633H739.109C739.509 302.633 739.848 302.773 740.127 303.053C740.407 303.332 740.547 303.671 740.547 304.071V308.503C740.547 308.942 740.407 309.301 740.127 309.581C739.848 309.86 739.509 310 739.109 310H733.899ZM747.269 310C746.83 310 746.471 309.86 746.191 309.581C745.912 309.301 745.772 308.942 745.772 308.503V268.974C745.772 268.535 745.912 268.176 746.191 267.896C746.471 267.617 746.83 267.477 747.269 267.477H753.258C753.658 267.477 753.997 267.617 754.276 267.896C754.556 268.176 754.696 268.535 754.696 268.974V308.503C754.696 308.942 754.556 309.301 754.276 309.581C753.997 309.86 753.658 310 753.258 310H747.269ZM776.16 310.599C771.569 310.599 767.915 309.321 765.2 306.766C762.525 304.21 761.107 300.497 760.948 295.626C760.948 295.307 760.948 294.887 760.948 294.368C760.948 293.809 760.948 293.37 760.948 293.051C761.107 289.976 761.806 287.341 763.044 285.145C764.282 282.909 766.019 281.212 768.255 280.054C770.49 278.856 773.106 278.257 776.1 278.257C779.454 278.257 782.249 278.956 784.485 280.354C786.761 281.711 788.458 283.588 789.576 285.983C790.734 288.339 791.313 291.054 791.313 294.129V295.506C791.313 295.906 791.153 296.245 790.834 296.524C790.554 296.804 790.215 296.944 789.816 296.944H770.231C770.231 296.984 770.231 297.063 770.231 297.183C770.231 297.263 770.231 297.343 770.231 297.423C770.271 298.7 770.51 299.878 770.95 300.956C771.429 301.994 772.088 302.833 772.926 303.472C773.804 304.111 774.843 304.43 776.04 304.43C777.039 304.43 777.857 304.29 778.496 304.011C779.135 303.731 779.654 303.392 780.053 302.993C780.492 302.593 780.812 302.254 781.011 301.975C781.371 301.575 781.65 301.336 781.85 301.256C782.09 301.136 782.449 301.076 782.928 301.076H789.157C789.556 301.076 789.875 301.196 790.115 301.435C790.394 301.635 790.514 301.935 790.474 302.334C790.434 302.973 790.095 303.771 789.456 304.73C788.857 305.648 787.959 306.566 786.761 307.485C785.563 308.363 784.066 309.102 782.269 309.701C780.512 310.299 778.476 310.599 776.16 310.599ZM770.231 291.493H781.97V291.374C781.97 289.936 781.73 288.699 781.251 287.66C780.812 286.582 780.153 285.744 779.275 285.145C778.396 284.546 777.338 284.247 776.1 284.247C774.863 284.247 773.804 284.546 772.926 285.145C772.048 285.744 771.369 286.582 770.89 287.66C770.451 288.699 770.231 289.936 770.231 291.374V291.493ZM798.737 310C798.338 310 797.998 309.86 797.719 309.581C797.439 309.301 797.3 308.942 797.3 308.503V280.354C797.3 279.914 797.439 279.555 797.719 279.276C797.998 278.996 798.338 278.856 798.737 278.856H804.726C805.165 278.856 805.525 278.996 805.804 279.276C806.084 279.555 806.223 279.914 806.223 280.354V308.503C806.223 308.942 806.084 309.301 805.804 309.581C805.525 309.86 805.165 310 804.726 310H798.737ZM798.557 274.065C798.158 274.065 797.819 273.925 797.539 273.646C797.26 273.366 797.12 273.007 797.12 272.568V267.776C797.12 267.337 797.26 266.978 797.539 266.698C797.819 266.379 798.158 266.219 798.557 266.219H804.846C805.285 266.219 805.645 266.379 805.924 266.698C806.243 266.978 806.403 267.337 806.403 267.776V272.568C806.403 273.007 806.243 273.366 805.924 273.646C805.645 273.925 805.285 274.065 804.846 274.065H798.557ZM826.948 310.599C824.473 310.599 822.337 310.319 820.54 309.76C818.783 309.162 817.346 308.443 816.228 307.604C815.15 306.766 814.331 305.927 813.772 305.089C813.253 304.21 812.974 303.472 812.934 302.873C812.894 302.434 813.034 302.074 813.353 301.795C813.672 301.515 813.992 301.376 814.311 301.376H820.121C820.24 301.376 820.36 301.396 820.48 301.435C820.6 301.475 820.72 301.575 820.839 301.735C821.358 302.094 821.897 302.514 822.456 302.993C823.015 303.432 823.654 303.811 824.373 304.131C825.132 304.45 826.07 304.61 827.188 304.61C828.506 304.61 829.623 304.35 830.542 303.831C831.46 303.272 831.919 302.494 831.919 301.495C831.919 300.777 831.7 300.178 831.261 299.699C830.861 299.22 830.083 298.78 828.925 298.381C827.767 297.982 826.05 297.543 823.774 297.063C821.618 296.584 819.781 295.945 818.264 295.147C816.747 294.348 815.609 293.35 814.85 292.152C814.092 290.915 813.712 289.437 813.712 287.72C813.712 286.163 814.191 284.666 815.15 283.228C816.148 281.791 817.605 280.613 819.522 279.695C821.438 278.737 823.834 278.257 826.709 278.257C828.905 278.257 830.821 278.537 832.458 279.096C834.135 279.615 835.533 280.294 836.651 281.132C837.769 281.931 838.607 282.769 839.166 283.648C839.765 284.486 840.085 285.225 840.124 285.864C840.164 286.263 840.045 286.602 839.765 286.882C839.486 287.161 839.166 287.301 838.807 287.301H833.477C833.277 287.301 833.097 287.281 832.937 287.241C832.778 287.161 832.638 287.062 832.518 286.942C832.039 286.622 831.54 286.263 831.021 285.864C830.542 285.424 829.963 285.045 829.284 284.726C828.605 284.406 827.727 284.247 826.649 284.247C825.331 284.247 824.313 284.546 823.594 285.145C822.916 285.704 822.576 286.423 822.576 287.301C822.576 287.86 822.756 288.379 823.115 288.858C823.475 289.337 824.213 289.777 825.331 290.176C826.449 290.575 828.146 290.994 830.422 291.434C833.137 291.913 835.293 292.631 836.89 293.59C838.487 294.548 839.625 295.666 840.304 296.944C841.023 298.181 841.382 299.519 841.382 300.956C841.382 302.833 840.823 304.51 839.705 305.987C838.587 307.425 836.95 308.563 834.794 309.401C832.678 310.2 830.063 310.599 826.948 310.599ZM861.987 310C859.512 310 857.396 309.601 855.639 308.802C853.882 307.964 852.544 306.686 851.626 304.969C850.748 303.252 850.308 301.096 850.308 298.501V285.924H845.637C845.198 285.924 844.838 285.784 844.559 285.504C844.279 285.225 844.14 284.865 844.14 284.426V280.354C844.14 279.914 844.279 279.555 844.559 279.276C844.838 278.996 845.198 278.856 845.637 278.856H850.308V268.974C850.308 268.535 850.448 268.176 850.728 267.896C851.047 267.617 851.406 267.477 851.806 267.477H857.675C858.114 267.477 858.474 267.617 858.753 267.896C859.033 268.176 859.172 268.535 859.172 268.974V278.856H866.659C867.058 278.856 867.397 278.996 867.677 279.276C867.956 279.555 868.096 279.914 868.096 280.354V284.426C868.096 284.865 867.956 285.225 867.677 285.504C867.397 285.784 867.058 285.924 866.659 285.924H859.172V297.782C859.172 299.299 859.432 300.497 859.951 301.376C860.51 302.214 861.468 302.633 862.826 302.633H867.198C867.597 302.633 867.936 302.773 868.216 303.053C868.495 303.332 868.635 303.671 868.635 304.071V308.503C868.635 308.942 868.495 309.301 868.216 309.581C867.936 309.86 867.597 310 867.198 310H861.987ZM885.3 310.599C882.984 310.599 880.928 310.08 879.131 309.042C877.374 307.964 875.996 306.426 874.998 304.43C874.04 302.394 873.561 299.938 873.561 297.063V280.354C873.561 279.914 873.701 279.555 873.98 279.276C874.26 278.996 874.599 278.856 874.998 278.856H881.347C881.786 278.856 882.145 278.996 882.425 279.276C882.704 279.555 882.844 279.914 882.844 280.354V296.704C882.844 301.176 884.801 303.412 888.713 303.412C890.59 303.412 892.067 302.833 893.145 301.675C894.263 300.477 894.822 298.82 894.822 296.704V280.354C894.822 279.914 894.962 279.555 895.242 279.276C895.521 278.996 895.88 278.856 896.32 278.856H902.668C903.067 278.856 903.407 278.996 903.686 279.276C903.966 279.555 904.106 279.914 904.106 280.354V308.503C904.106 308.942 903.966 309.301 903.686 309.581C903.407 309.86 903.067 310 902.668 310H896.799C896.36 310 896 309.86 895.721 309.581C895.441 309.301 895.302 308.942 895.302 308.503V306.167C894.263 307.604 892.926 308.702 891.289 309.461C889.652 310.22 887.655 310.599 885.3 310.599ZM913.081 310C912.682 310 912.342 309.86 912.063 309.581C911.783 309.301 911.644 308.942 911.644 308.503V280.354C911.644 279.914 911.783 279.555 912.063 279.276C912.342 278.996 912.682 278.856 913.081 278.856H918.95C919.389 278.856 919.749 278.996 920.028 279.276C920.308 279.555 920.448 279.914 920.448 280.354V282.689C921.486 281.412 922.823 280.354 924.46 279.515C926.097 278.677 928.094 278.257 930.449 278.257C932.805 278.257 934.861 278.796 936.618 279.875C938.415 280.913 939.813 282.45 940.811 284.486C941.849 286.483 942.368 288.918 942.368 291.793V308.503C942.368 308.942 942.208 309.301 941.889 309.581C941.609 309.86 941.27 310 940.871 310H934.522C934.083 310 933.724 309.86 933.444 309.581C933.165 309.301 933.025 308.942 933.025 308.503V292.152C933.025 290.036 932.506 288.399 931.468 287.241C930.469 286.043 928.992 285.444 927.036 285.444C925.159 285.444 923.662 286.043 922.544 287.241C921.426 288.399 920.867 290.036 920.867 292.152V308.503C920.867 308.942 920.727 309.301 920.448 309.581C920.168 309.86 919.829 310 919.429 310H913.081ZM964.157 323.176C961.203 323.176 958.747 322.777 956.791 321.978C954.834 321.22 953.277 320.281 952.119 319.163C951.001 318.085 950.202 317.007 949.723 315.929C949.244 314.851 948.985 314.013 948.945 313.414C948.905 312.975 949.045 312.615 949.364 312.336C949.683 312.056 950.043 311.917 950.442 311.917H956.85C957.21 311.917 957.509 311.996 957.749 312.156C958.028 312.356 958.248 312.675 958.408 313.114C958.607 313.593 958.887 314.093 959.246 314.612C959.605 315.171 960.144 315.63 960.863 315.989C961.622 316.349 962.62 316.528 963.858 316.528C965.255 316.528 966.413 316.329 967.331 315.929C968.25 315.53 968.929 314.851 969.368 313.893C969.847 312.935 970.086 311.637 970.086 310V305.987C969.128 307.025 967.91 307.884 966.433 308.563C964.996 309.241 963.219 309.581 961.103 309.581C959.026 309.581 957.19 309.261 955.593 308.622C954.036 307.944 952.738 307.005 951.7 305.808C950.662 304.57 949.863 303.092 949.304 301.376C948.745 299.659 948.426 297.722 948.346 295.566C948.306 294.488 948.306 293.43 948.346 292.392C948.426 290.316 948.745 288.419 949.304 286.702C949.863 284.985 950.662 283.508 951.7 282.27C952.738 280.992 954.036 280.014 955.593 279.335C957.19 278.617 959.026 278.257 961.103 278.257C963.299 278.257 965.175 278.677 966.733 279.515C968.29 280.354 969.567 281.392 970.566 282.63V280.354C970.566 279.954 970.705 279.615 970.985 279.335C971.264 279.016 971.604 278.856 972.003 278.856H977.872C978.272 278.856 978.611 279.016 978.891 279.335C979.21 279.615 979.37 279.954 979.37 280.354L979.43 309.162C979.43 312.156 978.851 314.692 977.693 316.768C976.535 318.844 974.818 320.421 972.542 321.499C970.306 322.617 967.511 323.176 964.157 323.176ZM963.858 302.573C965.295 302.573 966.453 302.254 967.331 301.615C968.25 300.936 968.929 300.098 969.368 299.1C969.807 298.062 970.047 296.984 970.086 295.866C970.126 295.426 970.146 294.807 970.146 294.009C970.146 293.17 970.126 292.532 970.086 292.092C970.047 290.974 969.807 289.916 969.368 288.918C968.929 287.88 968.25 287.042 967.331 286.403C966.453 285.764 965.295 285.444 963.858 285.444C962.34 285.444 961.143 285.784 960.264 286.463C959.386 287.101 958.747 287.96 958.348 289.038C957.948 290.116 957.709 291.294 957.629 292.572C957.589 293.53 957.589 294.468 957.629 295.386C957.709 296.704 957.948 297.902 958.348 298.98C958.747 300.058 959.386 300.936 960.264 301.615C961.143 302.254 962.34 302.573 963.858 302.573Z" fill="black"></path></g><defs><clipPath id="clip0_1128_3734"><rect width="1663" height="1212" fill="white"></rect></clipPath></defs></svg> 