<?xml version="1.0" encoding="UTF-8" standalone="no"?>
<!DOCTYPE svg PUBLIC "-//W3C//DTD SVG 20010904//EN"
              "http://www.w3.org/TR/2001/REC-SVG-20010904/DTD/svg10.dtd">

<svg xmlns="http://www.w3.org/2000/svg"
     width="1.67in" height="1.25in"
     viewBox="0 0 501 375">
  <path id="Selection"
        fill="#f77f00" stroke="none" stroke-width="1"
        d="M 261.00,79.00
           C 267.78,63.01 272.12,42.99 277.00,26.00
             278.81,19.71 280.16,10.43 288.00,9.24
             298.58,7.64 298.75,17.73 297.11,25.00
             297.11,25.00 283.00,83.00 283.00,83.00
             283.00,83.00 298.00,70.28 298.00,70.28
             301.23,67.52 306.69,62.67 311.00,62.31
             317.18,61.80 323.79,67.81 320.65,76.00
             318.66,81.22 311.09,87.91 307.00,92.00
             307.00,92.00 277.00,122.00 277.00,122.00
             272.33,126.60 265.23,133.06 258.02,130.26
             252.32,128.05 250.02,120.39 248.63,115.00
             246.07,105.10 238.54,75.80 239.04,67.00
             239.64,56.55 251.76,54.54 256.29,66.00
             256.29,66.00 261.00,79.00 261.00,79.00 Z
           M 384.00,156.00
           C 395.78,150.93 415.47,136.68 427.00,129.00
             432.70,125.20 440.76,118.65 448.00,119.70
             453.31,120.47 457.10,125.81 455.25,131.00
             454.02,134.42 450.85,136.65 448.00,138.66
             448.00,138.66 407.00,167.00 407.00,167.00
             401.53,170.68 389.97,177.60 387.00,183.00
             387.00,183.00 413.00,187.60 413.00,187.60
             416.45,188.29 423.11,189.30 425.89,191.09
             430.98,194.35 431.49,203.23 426.61,206.99
             423.98,209.02 420.17,209.08 417.00,208.96
             417.00,208.96 379.00,203.25 379.00,203.25
             379.00,203.25 355.00,198.87 355.00,198.87
             346.84,195.80 345.59,188.73 347.79,181.00
             347.79,181.00 367.42,142.00 367.42,142.00
             370.12,137.21 373.62,128.18 379.04,126.51
             385.14,124.63 390.90,128.52 390.85,135.00
             390.83,138.96 385.61,151.19 384.00,156.00 Z
           M 316.00,221.00
           C 336.31,232.86 347.56,260.24 342.10,283.00
             339.17,295.22 332.99,304.33 324.00,312.96
             310.84,325.60 296.47,332.40 280.00,339.42
             254.42,350.33 225.74,357.86 198.00,360.08
             198.00,360.08 188.00,361.00 188.00,361.00
             153.01,361.41 137.75,361.19 103.00,354.00
             65.91,346.32 32.46,319.45 32.00,279.00
             31.89,268.56 34.01,257.54 38.31,248.00
             42.41,238.90 48.53,228.44 55.17,221.00
             85.31,187.23 131.60,164.04 176.00,156.59
             182.94,155.42 193.06,154.03 200.00,154.00
             200.00,154.00 226.00,154.00 226.00,154.00
             253.77,154.33 284.99,165.02 306.00,183.29
             313.72,190.00 326.06,200.54 321.87,212.00
             320.56,215.59 318.42,218.13 316.00,221.00 Z
           M 304.00,209.00
           C 288.91,187.93 264.43,180.22 240.00,176.73
             240.00,176.73 221.00,174.91 221.00,174.91
             221.00,174.91 212.00,174.01 212.00,174.01
             212.00,174.01 199.00,175.04 199.00,175.04
             199.00,175.04 191.00,175.04 191.00,175.04
             156.11,178.49 124.92,191.66 97.00,212.63
             73.33,230.40 52.63,249.24 53.00,281.00
             53.09,288.72 55.06,294.33 58.87,301.00
             71.92,323.85 88.99,329.32 113.00,334.20
             113.00,334.20 134.00,338.13 134.00,338.13
             141.67,339.20 147.19,339.91 155.00,340.00
             155.00,340.00 168.00,341.00 168.00,341.00
             168.00,341.00 173.00,341.00 173.00,341.00
             173.00,341.00 185.00,339.96 185.00,339.96
             185.00,339.96 194.00,339.96 194.00,339.96
             225.97,336.79 263.39,327.47 291.00,310.80
             309.53,299.61 330.01,283.27 320.77,259.00
             319.21,254.91 317.19,251.44 314.48,248.00
             310.05,242.36 303.74,237.19 298.00,232.89
             288.31,225.64 279.07,220.97 268.00,216.28
             256.78,211.54 242.10,207.78 230.00,206.06
             230.00,206.06 222.00,206.06 222.00,206.06
             222.00,206.06 213.00,205.00 213.00,205.00
             213.00,205.00 192.00,206.05 192.00,206.05
             187.84,206.78 182.93,207.83 179.00,206.05
             171.87,202.19 171.65,195.22 178.04,190.70
             183.10,187.13 199.58,185.08 206.00,185.03
             206.00,185.03 210.00,185.03 210.00,185.03
             210.00,185.03 228.00,185.03 228.00,185.03
             238.60,185.82 257.96,190.64 268.00,194.42
             268.00,194.42 289.00,203.26 289.00,203.26
             293.79,205.58 298.57,208.99 304.00,209.00 Z
           M 390.00,334.00
           C 390.00,334.00 399.49,363.00 399.49,363.00
             401.32,371.92 400.31,375.32 391.00,374.98
             386.65,374.82 383.78,373.95 381.56,369.91
             381.56,369.91 373.95,349.00 373.95,349.00
             371.46,342.21 365.32,327.44 365.04,321.00
             364.84,316.46 365.32,311.76 368.42,308.19
             372.42,303.57 378.35,302.60 384.00,301.58
             384.00,301.58 409.00,297.85 409.00,297.85
             409.00,297.85 424.00,296.04 424.00,296.04
             438.89,295.47 442.12,307.44 435.85,312.44
             431.60,315.84 415.75,316.00 410.00,316.00
             418.30,323.00 432.92,329.21 443.00,334.25
             448.28,336.89 454.55,339.32 455.43,346.00
             456.62,355.08 447.43,355.96 441.00,353.91
             441.00,353.91 390.00,334.00 390.00,334.00 Z" />
</svg>
